<?xml version="1.0" encoding="UTF-8"?><svg id="Layer_1" xmlns="http://www.w3.org/2000/svg" viewBox="0 0 1829.24 305.29"><defs><style>.cls-1{fill:#231f20;stroke-width:0px;}</style></defs><path class="cls-1" d="m432.89,223.21V37.6h16.95v85.1h105.31V37.6h16.95v185.61h-16.95v-85.28h-105.31v85.28h-16.95Z"/><path class="cls-1" d="m619.08,275.42c-3.2,0-6.19-.3-8.97-.91s-4.98-1.27-6.62-1.99l4.35-14.23c5.5,1.69,10.39,2.31,14.68,1.86,4.29-.45,8.1-2.39,11.42-5.8,3.32-3.41,6.28-8.63,8.88-15.63l5.08-14.14-51.21-140.57h17.49l41.33,117.91h1.27l41.33-117.91h17.49l-58.91,161.23c-2.48,6.71-5.53,12.31-9.15,16.81-3.63,4.5-7.81,7.85-12.55,10.06-4.74,2.21-10.05,3.31-15.91,3.31Z"/><path class="cls-1" d="m736.84,275.42V84h15.68v26.56h1.9c1.93-4.17,4.59-8.44,7.98-12.82,3.38-4.38,7.87-8.08,13.46-11.1,5.59-3.02,12.64-4.53,21.16-4.53,11.48,0,21.52,3.01,30.13,9.02,8.61,6.01,15.32,14.41,20.12,25.2,4.8,10.78,7.2,23.34,7.2,37.66s-2.4,26.98-7.2,37.79c-4.8,10.82-11.51,19.25-20.12,25.29-8.61,6.04-18.6,9.06-29.95,9.06-8.4,0-15.42-1.51-21.07-4.53-5.65-3.02-10.21-6.75-13.69-11.19-3.47-4.44-6.15-8.78-8.02-13.01h-1.45v78.03h-16.13Zm15.95-121.72c0,11.24,1.68,21.19,5.03,29.86,3.35,8.67,8.19,15.47,14.5,20.39,6.31,4.93,13.97,7.39,22.98,7.39s17.05-2.55,23.43-7.66c6.37-5.1,11.24-12.01,14.59-20.71,3.35-8.7,5.03-18.46,5.03-29.27s-1.65-20.33-4.94-28.91c-3.29-8.58-8.14-15.39-14.55-20.44-6.41-5.04-14.26-7.57-23.56-7.57s-16.77,2.43-23.11,7.3c-6.34,4.86-11.16,11.57-14.45,20.12-3.29,8.55-4.94,18.38-4.94,29.5Z"/><path class="cls-1" d="m935.98,226.11c-12.99,0-24.23-3.04-33.72-9.11-9.49-6.07-16.81-14.5-21.98-25.29-5.17-10.78-7.75-23.22-7.75-37.29s2.58-26.48,7.75-37.39c5.17-10.91,12.33-19.45,21.48-25.65,9.15-6.19,19.74-9.29,31.77-9.29,7.55,0,14.83,1.38,21.84,4.12,7.01,2.75,13.31,6.95,18.9,12.6,5.59,5.65,10.02,12.75,13.28,21.3s4.89,18.66,4.89,30.32v7.97h-108.76v-14.23h92.26c0-8.94-1.8-16.99-5.39-24.15-3.6-7.16-8.58-12.82-14.95-16.99-6.38-4.17-13.73-6.25-22.07-6.25-8.82,0-16.59,2.36-23.29,7.07-6.71,4.71-11.95,10.94-15.72,18.67-3.78,7.74-5.7,16.19-5.76,25.38v8.52c0,11.06,1.92,20.71,5.76,28.96,3.84,8.25,9.29,14.64,16.36,19.17,7.07,4.53,15.44,6.8,25.11,6.8,6.58,0,12.37-1.03,17.36-3.08,4.98-2.05,9.18-4.82,12.6-8.29,3.41-3.47,6-7.3,7.75-11.46l15.32,4.98c-2.12,5.86-5.57,11.27-10.38,16.22-4.8,4.95-10.78,8.93-17.94,11.92-7.16,2.99-15.39,4.49-24.7,4.49Z"/><path class="cls-1" d="m1017.67,223.21V84h15.68v21.39h1.18c2.78-7.01,7.63-12.67,14.55-16.99,6.92-4.32,14.76-6.48,23.52-6.48,1.33,0,2.81.03,4.44.09,1.63.06,2.99.12,4.08.18v16.4c-.73-.12-1.99-.3-3.81-.54-1.81-.24-3.78-.36-5.89-.36-7.25,0-13.7,1.53-19.35,4.58-5.65,3.05-10.11,7.27-13.37,12.64-3.26,5.38-4.89,11.51-4.89,18.4v89.91h-16.13Z"/><path class="cls-1" d="m1200.44,94.8c7.25,5.8,12.27,13.97,15.08,24.5,2.8,10.54,2.75,22.57-.14,36.1-4.64,22.04-13.63,39.05-26.97,51.04-13.34,11.99-28.71,17.98-46.11,17.98-6.57,0-12.76-1.11-18.56-3.33s-10.05-4.97-12.76-8.26l-21.75,11.6,37.99-179.2c.97-4.64.63-8.02-1.01-10.15-1.64-2.12-4.69-3.28-9.13-3.48l-4.64-.29.87-4.06,35.09-8.12-21.75,101.2c5.02-10.63,11.6-18.99,19.72-25.08,8.12-6.09,17.3-9.13,27.55-9.13s19.28,2.9,26.53,8.7Zm-1.59,31.32c-1.55-9.08-4.88-15.99-10-20.73-5.13-4.73-11.55-7.1-19.28-7.1-10.83,0-20.69,3.87-29.58,11.6-8.9,7.74-14.98,19.24-18.27,34.51l-6.96,32.19c-1.55,7.54-1.45,14.4.29,20.59,1.74,6.19,5.12,11.07,10.15,14.64,5.02,3.58,11.21,5.36,18.56,5.36,13.34,0,24.69-5.55,34.07-16.67,9.37-11.11,15.9-25.47,19.57-43.06,2.51-11.79,3-22.23,1.45-31.32Z"/><path class="cls-1" d="m1329.47,208.47c1.64,2.13,4.78,3.38,9.42,3.77l4.35.29-.87,4.06-34.8,8.12,7.83-36.54c-6.38,11.99-14.11,21.02-23.2,27.11-9.09,6.09-18.95,9.13-29.58,9.13-11.79,0-20.35-3.72-25.66-11.16-5.32-7.44-6.43-18.31-3.33-32.62l14.21-68.43c1.16-4.44.87-7.78-.87-10-1.74-2.22-4.93-3.43-9.57-3.63l-4.35-.29.87-4.06,35.09-8.12-19.72,93.37c-2.32,11.21-1.5,19.57,2.47,25.08,3.96,5.51,10.19,8.26,18.7,8.26,6.57,0,13.19-1.64,19.86-4.93,6.67-3.28,12.66-8.41,17.98-15.37,5.31-6.96,9.13-15.85,11.45-26.68l11.31-53.65c1.16-4.44.87-7.78-.87-10-1.74-2.22-4.93-3.43-9.57-3.63l-4.35-.29.87-4.06,35.09-8.12-23.78,112.22c-.97,4.64-.63,8.02,1.02,10.15Z"/><path class="cls-1" d="m1387.9,211.23c2.32,2.22,6.86,3.82,13.63,4.78l-.87,4.06h-53.36l.87-4.06c6.96-.77,12.13-2.32,15.51-4.64,3.38-2.32,5.55-5.8,6.52-10.44l18.85-88.73c.97-4.44.68-7.78-.87-10-1.55-2.22-4.74-3.43-9.57-3.63l-4.35-.29.87-4.06,34.8-8.12-24.07,114.83c-.97,4.64-.29,8.07,2.03,10.29Zm15.08-166.3c-2.71-2.7-4.06-5.89-4.06-9.57.19-4.06,1.69-7.4,4.5-10.01,2.8-2.61,6.23-3.91,10.29-3.91s7.1,1.3,9.71,3.91,3.91,5.95,3.91,10.01c-.19,3.67-1.59,6.86-4.2,9.57-2.61,2.71-5.85,4.06-9.71,4.06-4.25,0-7.73-1.35-10.44-4.06Z"/><path class="cls-1" d="m1447.64,211.23c2.32,2.22,6.86,3.82,13.63,4.78l-.87,4.06h-53.36l.87-4.06c6.96-.97,12.13-2.56,15.51-4.78,3.38-2.22,5.56-5.65,6.52-10.29l33.06-155.72c.97-4.64.63-8.02-1.02-10.15-1.64-2.12-4.69-3.28-9.13-3.48l-4.64-.29.87-4.06,35.38-8.12-38.86,181.81c-.97,4.64-.29,8.07,2.03,10.29Z"/><path class="cls-1" d="m1582.47,208.18c1.74,2.13,4.93,3.38,9.57,3.77l4.64.29-.87,4.06-35.09,8.12,7.54-35.38c-5.22,11.21-11.89,19.91-20.01,26.1-8.12,6.18-17.4,9.28-27.84,9.28s-19.28-3.04-26.53-9.13c-7.25-6.09-12.23-14.4-14.93-24.94-2.71-10.53-2.71-22.28,0-35.23,3.09-14.69,8.36-27.21,15.8-37.55,7.44-10.34,16.19-18.17,26.24-23.49,10.05-5.31,20.3-7.97,30.74-7.97,7.35,0,14.11,1.3,20.3,3.91,6.19,2.61,10.92,6.81,14.21,12.61l12.18-57.41c1.16-4.64.87-8.02-.87-10.15-1.74-2.12-4.84-3.28-9.28-3.48l-4.64-.29.87-4.06,35.38-8.12-38.28,179.21c-1.16,4.45-.87,7.73.87,9.86Zm-28.13-7.54c8.89-7.73,14.98-19.23,18.27-34.51l6.67-30.74c1.74-7.92,1.74-15.08,0-21.46-1.74-6.38-5.07-11.4-10-15.08-4.93-3.67-11.16-5.51-18.7-5.51-13.34,0-24.75,5.61-34.22,16.82-9.47,11.21-16.05,25.52-19.72,42.92-2.32,11.6-2.71,21.94-1.16,31.03,1.54,9.09,4.88,16.05,10,20.88,5.12,4.84,11.55,7.25,19.28,7.25,10.82,0,20.68-3.86,29.58-11.6Z"/><path class="cls-1" d="m1629.74,180.78c1.93,9.76,5.99,17.25,12.18,22.47,6.19,5.22,14.01,7.83,23.49,7.83,10.24,0,19.62-2.75,28.13-8.26,8.51-5.51,14.88-12.51,19.14-21.02l3.48.87c-5.03,13.15-12.76,23.3-23.2,30.45-10.44,7.15-22.23,10.73-35.38,10.73-10.83,0-20.15-2.85-27.98-8.55-7.83-5.7-13.19-14.06-16.09-25.08-2.9-11.02-2.8-23.97.29-38.86,2.7-12.76,7.44-24.07,14.21-33.93,6.76-9.86,15.08-17.54,24.94-23.05s20.39-8.26,31.61-8.26,20.39,2.27,27.55,6.81c7.15,4.54,11.74,11.07,13.77,19.57,2.03,8.51,1.11,18.66-2.75,30.45h-93.66l1.74-7.25h76.26c4.45-13.34,4.25-23.73-.58-31.17-4.83-7.44-13.05-11.16-24.65-11.16-12.18,0-22.81,4.88-31.9,14.64-9.09,9.76-15.47,22.67-19.14,38.71-2.9,12.95-3.38,24.31-1.45,34.07Z"/><path class="cls-1" d="m1790.1,99.59c6.38-6.67,13.05-10.87,20.01-12.61s13.34-.97,19.14,2.32l-5.8,16.53c-6.19-4.25-13-5.46-20.44-3.63-7.44,1.84-14.31,6.62-20.59,14.35-6.28,7.74-10.78,17.98-13.48,30.74l-11.02,53.64c-1.16,4.84.05,8.46,3.63,10.87,3.58,2.42,10.19,3.82,19.86,4.2l-.87,4.06h-61.48l.87-4.06c6.96-.97,12.18-2.56,15.66-4.78,3.48-2.22,5.7-5.65,6.67-10.29l18.85-88.73c.97-4.44.63-7.78-1.01-10-1.64-2.22-4.88-3.43-9.71-3.63l-4.35-.29.87-4.06,35.09-8.12-8.41,38.57c4.64-10.05,10.15-18.41,16.53-25.08Z"/><path class="cls-1" d="m344.66,140.64c-6.35-10.71-12.44-21.58-18.66-32.37-17.73-30.78-35.49-61.54-53.16-92.35-5.09-8.87-11.52-15.78-22.59-15.8-43.42-.08-86.84-.23-130.25.03-16.14.1-24.85,15.49-17.44,29.98,2.41,4.72,5.27,9.21,7.92,13.8,14.4,24.94,28.8,49.88,43.41,75.2-.1,0-.16,0-.18,0h.18c1.26,2.19,2.52,4.37,3.79,6.56,8.39,14.91,9.38,32.72,2.95,48.3-7.17,12.28-14.32,24.56-21.08,37.06-6.56,12.15-15.87,17.75-29.66,17.17-12.45-.52-24.93-.13-37.4-.09-18.26.05-25.28-12.09-16.09-28.02,18.79-32.56,37.63-65.1,56.5-97.62,3.81-6.57,7.11-13.17,2.74-20.74-4.32-7.47-11.48-8.38-19.2-8.28-12.7.16-25.4.27-38.1,0-12.31-.27-21.07,4.67-27.06,15.57-8.44,15.36-17.08,30.62-26.3,45.52-7.04,11.37-6.35,21.73.27,33.02,24.03,40.99,47.68,82.19,71.39,123.36,5.44,9.44,13.06,14.13,24.25,14.06,41.33-.25,82.69-.92,123.99.28,17.72.51,30.19-15.91,19.53-33.37-17.31-28.34-33.4-57.42-50.03-86.17-2.22-3.85-4.46-7.7-6.71-11.58-6.02-14.54-5.57-31.01,1.3-45.26,7.42-12.79,14.83-25.58,22.13-38.43,5.2-9.16,12.98-13.41,23.27-13.45,14.78-.05,29.57-.33,44.34.06,15.05.4,21.57,12.16,14.56,25.52-.96,1.84-1.99,3.65-3.03,5.44-18.73,32.33-37.46,64.66-56.2,96.99-7.87,13.59-1.12,26.26,14.41,26.55,14.78.27,29.56.2,44.34.01,9.94-.12,17.72-4.29,22.78-13.18,9.7-17.04,19.46-34.04,29.32-50.99,5.26-9.05,5.07-17.81-.24-26.77Z"/></svg>